<?xml version="1.0" encoding="utf-8"?>
<!-- Generator: Adobe Illustrator 23.1.1, SVG Export Plug-In . SVG Version: 6.00 Build 0)  -->
<svg version="1.1" id="Layer_1" xmlns="http://www.w3.org/2000/svg" xmlns:xlink="http://www.w3.org/1999/xlink" x="0px" y="0px"
	 viewBox="0 0 913.11 875.16" style="enable-background:new 0 0 913.11 875.16;" xml:space="preserve">
<style type="text/css">
	.st0{clip-path:url(#SVGID_2_);}
	.st1{enable-background:new    ;}
	.st2{fill:#FFFFFF;}
	.st3{clip-path:url(#SVGID_4_);}
	.st4{clip-path:url(#SVGID_6_);}
	.st5{clip-path:url(#SVGID_8_);}
	.st6{clip-path:url(#SVGID_10_);}
</style>
<g>
	<g>
		<defs>
			<rect id="SVGID_1_" x="-15.12" y="-76.05" width="534" height="743"/>
		</defs>
		<clipPath id="SVGID_2_">
			<use xlink:href="#SVGID_1_"  style="overflow:visible;"/>
		</clipPath>
		<g class="st0">
			<g class="st1">
				<path class="st2" d="M116.28,91.35c0.13,17.47-4.87,31.1-15,40.9c-10.13,9.8-24.07,14.7-41.8,14.7c-10.53,0-20.23-2.4-29.1-7.2
					c-8.87-4.8-15.9-11.6-21.1-20.4c-5.2-8.8-7.8-18.93-7.8-30.4v-29.2c0-11.33,2.5-21.4,7.5-30.2c5-8.8,11.87-15.63,20.6-20.5
					c8.73-4.87,18.5-7.3,29.3-7.3c17.73,0,31.63,4.83,41.7,14.5c10.07,9.67,15.17,23.3,15.3,40.9h-36c-0.13-6.8-1.97-12.07-5.5-15.8
					c-3.53-3.73-8.7-5.6-15.5-5.6c-6.13,0-11.2,1.93-15.2,5.8c-4,3.87-6,9.33-6,16.4v32.6c0,7.07,2.1,12.57,6.3,16.5
					c4.2,3.93,9.37,5.9,15.5,5.9c14,0,21-7.2,21-21.6H116.28z"/>
				<path class="st2" d="M163.88,143.95V4.75h7.4v131.8h97v7.4H163.88z"/>
				<path class="st2" d="M420.48,143.95h-131.2l65.6-142.2L420.48,143.95z M300.88,136.55h108l-54-117.2L300.88,136.55z"/>
			</g>
		</g>
	</g>
	<g>
		<defs>
			<rect id="SVGID_3_" x="-15.12" y="-76.05" width="534" height="743"/>
		</defs>
		<clipPath id="SVGID_4_">
			<use xlink:href="#SVGID_3_"  style="overflow:visible;"/>
		</clipPath>
		<g class="st3">
			<g class="st1">
				<path class="st2" d="M104.08,244.75v7.4h-41.6v124.4h41.6v7.4h-90.2v-7.4h41.4v-124.4h-41.4v-7.4H104.08z"/>
				<path class="st2" d="M255.98,265.95c4.6,7.33,6.9,15.47,6.9,24.4c0,10.4-3.17,19.7-9.5,27.9c-6.33,8.2-14.43,13.63-24.3,16.3
					l35.4,49.4h-8.8l-34.2-48l-6.4,0.2h-50.2v47.8h-7.4v-139.2h53c5.87,0,10.9,0.37,15.1,1.1c4.2,0.73,8.03,1.9,11.5,3.5
					C245.08,253.08,251.38,258.62,255.98,265.95z M217.08,328.75c6.93,0,13.33-1.73,19.2-5.2c5.87-3.46,10.53-8.13,14-14
					c3.47-5.87,5.2-12.27,5.2-19.2c0-7.73-2.03-14.73-6.1-21c-4.07-6.27-9.7-10.93-16.9-14c-5.2-2.13-12.53-3.2-22-3.2h-45.6v76.6
					H217.08z"/>
				<path class="st2" d="M306.88,244.75h98v7.4h-90.6v56.4h78.8v7.4h-78.8v60.6h90.6v7.4h-98V244.75z"/>
			</g>
		</g>
	</g>
</g>
<g>
	<g>
		<defs>
			<rect id="SVGID_5_" x="480.88" y="164.95" width="534" height="743"/>
		</defs>
		<clipPath id="SVGID_6_">
			<use xlink:href="#SVGID_5_"  style="overflow:visible;"/>
		</clipPath>
		<g class="st4">
			<g class="st1">
				<path class="st2" d="M610.08,245.75v7.4h-95.8v44.6h76.8v35.2h-76.8v52h-7.4v-139.2H610.08z"/>
				<path class="st2" d="M748.08,245.75v7.4h-41.6v124.4h41.6v7.4h-90.2v-7.4h41.4v-124.4h-41.4v-7.4H748.08z"/>
			</g>
		</g>
	</g>
	<g>
		<defs>
			<rect id="SVGID_7_" x="480.88" y="164.95" width="534" height="743"/>
		</defs>
		<clipPath id="SVGID_8_">
			<use xlink:href="#SVGID_7_"  style="overflow:visible;"/>
		</clipPath>
		<g class="st5">
			<g class="st1">
				<path class="st2" d="M511.88,624.95v-139.2h7.4v131.8h97v7.4H511.88z"/>
				<path class="st2" d="M748.08,485.75v7.4h-41.6v124.4h41.6v7.4h-90.2v-7.4h41.4v-124.4h-41.4v-7.4H748.08z"/>
			</g>
		</g>
	</g>
	<g>
		<defs>
			<rect id="SVGID_9_" x="480.88" y="164.95" width="534" height="743"/>
		</defs>
		<clipPath id="SVGID_10_">
			<use xlink:href="#SVGID_9_"  style="overflow:visible;"/>
		</clipPath>
		<g class="st6">
			<g class="st1">
				<path class="st2" d="M508.68,864.95v-139.2h58.2c9.73,0,18.13,1.8,25.2,5.4c8.13,4.13,14.6,10.03,19.4,17.7
					c4.8,7.67,7.2,16.1,7.2,25.3s-2.37,17.67-7.1,25.4c-4.73,7.73-11.17,13.67-19.3,17.8c-6.93,3.6-15.4,5.4-25.4,5.4h-21.8v42.2
					H508.68z"/>
				<path class="st2" d="M654.88,725.75h98v7.4h-90.6v56.4h78.8v7.4h-78.8v60.6h90.6v7.4h-98V725.75z"/>
				<path class="st2" d="M806.28,725.75v94.2l94.4-94.2h10.4l-58.2,58l58,81.2h-8.8l-54.4-76l-41.4,41.4v34.6h-7.4v-139.2H806.28z"
					/>
			</g>
		</g>
	</g>
</g>
</svg>
